<svg width="480" height="480" viewBox="0 0 480 480" fill="none" xmlns="http://www.w3.org/2000/svg">
  <defs>
    <linearGradient id="g1" x1="0" y1="0" x2="1" y2="1">
      <stop stop-color="#40FFB3"/>
      <stop offset="1" stop-color="#0dd197"/>
    </linearGradient>
    <linearGradient id="g2" x1="0" y1="0" x2="1" y2="1">
      <stop stop-color="#F6C25C"/>
      <stop offset="1" stop-color="#FFDF8D"/>
    </linearGradient>
    <linearGradient id="g3" x1="0" y1="0" x2="1" y2="1">
      <stop stop-color="#C58CFF"/>
      <stop offset="1" stop-color="#8A5FD4"/>
    </linearGradient>
    <linearGradient id="g4" x1="0" y1="0" x2="1" y2="1">
      <stop stop-color="#FF8F7A"/>
      <stop offset="1" stop-color="#FF605C"/>
    </linearGradient>
    <linearGradient id="g5" x1="0" y1="0" x2="1" y2="1">
      <stop stop-color="#7DB4FF"/>
      <stop offset="1" stop-color="#4B8CFF"/>
    </linearGradient>
    <linearGradient id="g6" x1="0" y1="0" x2="1" y2="1">
      <stop stop-color="#FFD488"/>
      <stop offset="1" stop-color="#FFB85C"/>
    </linearGradient>
    <linearGradient id="g7" x1="0" y1="0" x2="1" y2="1">
      <stop stop-color="#B0BEC5"/>
      <stop offset="1" stop-color="#90A4AE"/>
    </linearGradient>
  </defs>
  <g transform="translate(240 240)">
    <g fill="none" stroke-linecap="butt" stroke-width="120">
      <!-- Start at -90deg so chart begins at top -->
      <circle r="150" stroke="#ffffff" stroke-opacity="0.06"/>
      <path d="M0-150 A150 150 0 0 1 90.575 -119.715" stroke="url(#g1)"/> <!-- 30% -->
      <path d="M90.575 -119.715 A150 150 0 0 1 149.517 -17.365" stroke="url(#g2)"/> <!-- 22.5% -->
      <path d="M149.517 -17.365 A150 150 0 0 1 69.825 133.235" stroke="url(#g3)"/> <!-- 15% -->
      <path d="M69.825 133.235 A150 150 0 0 1 -41.682 144.003" stroke="url(#g4)"/> <!-- 7.5% -->
      <path d="M-41.682 144.003 A150 150 0 0 1 -99.555 111.602" stroke="url(#g5)"/> <!-- 8% -->
      <path d="M-99.555 111.602 A150 150 0 0 1 -141.137 46.990" stroke="url(#g6)"/> <!-- 7% -->
      <path d="M-141.137 46.990 A150 150 0 0 1 -122.078 -86.328" stroke="url(#g7)"/> <!-- 5% -->
      <path d="M-122.078 -86.328 A150 150 0 0 1 -90.575 -119.715" stroke="url(#g5)"/> <!-- 5% -->
    </g>
  </g>
  <circle cx="240" cy="240" r="90" fill="rgba(7,8,11,0.9)" stroke="rgba(255,255,255,0.08)" stroke-width="2"/>
  <text x="240" y="230" text-anchor="middle" fill="#f6c25c" font-family="Arial, sans-serif" font-weight="700" font-size="18">ECO</text>
  <text x="240" y="255" text-anchor="middle" fill="#d0d6e0" font-family="Arial, sans-serif" font-size="12">Tokenomics</text>
</svg>
